<svg width="134" height="69" viewBox="0 0 134 69" fill="none" xmlns="http://www.w3.org/2000/svg">
<g clip-path="url(#clip0_4_17)">
<g clip-path="url(#clip1_4_17)">
<path d="M23.5237 9.83233L23.2261 10.069C21.2191 11.7434 19.9461 14.2637 19.9742 17.0517C20.0074 19.4221 20.9381 21.7448 22.6379 23.4263C24.3405 25.114 26.6816 26.031 29.0372 26.0244L54.2192 26.0016L54.2084 28.7888L51.8361 28.7662L51.9305 32.806C51.9305 32.806 59.3276 32.7993 63.0042 32.7816L62.9697 28.6305L56.9749 28.7736L56.9857 25.9864L62.9572 25.8407L62.9461 21.6922L29.0637 21.846C27.7088 21.9053 26.4775 21.3891 25.5592 20.4797C24.642 19.5716 24.112 18.345 24.1622 16.9943C24.1314 14.3229 26.3031 12.1273 28.9887 12.1171L41.2888 12.0613C41.3484 12.0562 56.1376 11.9831 65.6952 14.3733C67.6021 14.8508 69.2753 15.4079 70.5438 16.0961C71.3643 16.5679 72.0371 16.9873 72.2115 17.6334C72.499 18.635 73.4771 19.2783 74.5095 19.1361C75.5185 18.9913 76.2807 18.1095 76.2812 17.0698L76.2021 2.53981C76.2026 1.50012 75.4274 0.631866 74.3906 0.501769C73.3669 0.361339 72.3823 1.017 72.1253 2.02741C71.9574 2.66991 71.2951 3.09058 70.4847 3.56526C69.2226 4.27195 67.5485 4.86076 65.6492 5.35297C56.1162 7.82171 41.329 7.89743 41.2362 7.91401L28.9604 7.97379C26.994 7.98422 25.0849 8.63685 23.5237 9.83233ZM30.2125 13.4961L30.2513 20.4775L33.0191 20.4612L32.979 13.4809L30.2125 13.4961ZM36.8567 13.3161L36.9113 20.2933L39.6648 20.2884L39.6102 13.3112L36.8567 13.3161ZM48.5708 13.2702L48.6021 20.2447L51.366 20.2529L51.3243 13.2653L48.5708 13.2702ZM44.5779 28.2808L44.6075 33.1993L49.056 32.5253L49.033 28.8954L44.5779 28.2808ZM65.6996 21.6874L65.7707 32.7664L111.357 32.5325C114.419 32.5155 116.889 30.0208 116.886 26.9484C116.856 23.8967 114.361 21.4262 111.322 21.4458L65.6996 21.6874ZM68.9668 25.9828L111.333 25.5942C112.09 25.5861 112.729 26.2024 112.734 26.9829C112.73 27.7503 112.113 28.3889 111.346 28.384L68.9923 28.7623L68.9668 25.9828Z" fill="white"/>
<path d="M23.5237 9.83233L23.2261 10.069C21.2191 11.7434 19.9461 14.2637 19.9742 17.0517C20.0074 19.4221 20.9381 21.7448 22.6379 23.4263C24.3405 25.114 26.6816 26.031 29.0372 26.0244L54.2192 26.0016L54.2084 28.7888L51.8361 28.7662L51.9305 32.806C51.9305 32.806 59.3276 32.7993 63.0042 32.7816L62.9697 28.6305L56.9749 28.7736L56.9857 25.9864L62.9572 25.8407L62.9461 21.6922L29.0637 21.846C27.7088 21.9053 26.4775 21.3891 25.5592 20.4797C24.642 19.5716 24.112 18.345 24.1622 16.9943C24.1314 14.3229 26.3031 12.1273 28.9887 12.1171L41.2888 12.0613C41.3484 12.0562 56.1376 11.9831 65.6952 14.3733C67.6021 14.8508 69.2753 15.4079 70.5438 16.0961C71.3643 16.5679 72.0371 16.9873 72.2115 17.6334C72.499 18.635 73.4771 19.2783 74.5095 19.1361C75.5185 18.9913 76.2807 18.1095 76.2812 17.0698L76.2021 2.53981C76.2026 1.50012 75.4274 0.631866 74.3906 0.501769C73.3669 0.361339 72.3823 1.017 72.1253 2.02741C71.9574 2.66991 71.2951 3.09058 70.4847 3.56526C69.2226 4.27195 67.5485 4.86076 65.6492 5.35297C56.1162 7.82171 41.329 7.89743 41.2362 7.91401L28.9604 7.97379C26.994 7.98422 25.0849 8.63685 23.5237 9.83233ZM30.2125 13.4961L30.2513 20.4775L33.0191 20.4612L32.979 13.4809L30.2125 13.4961ZM36.8567 13.3161L36.9113 20.2933L39.6648 20.2884L39.6102 13.3112L36.8567 13.3161ZM48.5708 13.2702L48.6021 20.2447L51.366 20.2529L51.3243 13.2653L48.5708 13.2702ZM44.5779 28.2808L44.6075 33.1993L49.056 32.5253L49.033 28.8954L44.5779 28.2808ZM65.6996 21.6874L65.7707 32.7664L111.357 32.5325C114.419 32.5155 116.889 30.0208 116.886 26.9484C116.856 23.8967 114.361 21.4262 111.322 21.4458L65.6996 21.6874ZM68.9668 25.9828L111.333 25.5942C112.09 25.5861 112.729 26.2024 112.734 26.9829C112.73 27.7503 112.113 28.3889 111.346 28.384L68.9923 28.7623L68.9668 25.9828Z" fill="white"/>
</g>
<path d="M8.31885 65.0601C9.02197 65.0601 9.86572 64.9062 10.8501 64.5986V67.5913C9.84814 68.0396 8.61768 68.2637 7.15869 68.2637C5.55029 68.2637 4.37695 67.8594 3.63867 67.0508C2.90918 66.2334 2.54443 65.0117 2.54443 63.3857V56.2798H0.619629V54.5791L2.83447 53.2344L3.99463 50.123H6.56543V53.2607H10.6919V56.2798H6.56543V63.3857C6.56543 63.957 6.72363 64.3789 7.04004 64.6514C7.36523 64.9238 7.7915 65.0601 8.31885 65.0601ZM22.0693 52.9839C22.6143 52.9839 23.0669 53.0234 23.4272 53.1025L23.124 56.873C22.7988 56.7852 22.4033 56.7412 21.9375 56.7412C20.6543 56.7412 19.6523 57.0708 18.9316 57.73C18.2197 58.3892 17.8638 59.312 17.8638 60.4985V68H13.8428V53.2607H16.8882L17.4814 55.7393H17.6792C18.1362 54.9131 18.7515 54.2495 19.5249 53.7485C20.3071 53.2388 21.1553 52.9839 22.0693 52.9839ZM29.0435 60.604C29.0435 62.063 29.2808 63.166 29.7554 63.9131C30.2388 64.6602 31.021 65.0337 32.1021 65.0337C33.1743 65.0337 33.9434 64.6646 34.4092 63.9263C34.8838 63.1792 35.1211 62.0718 35.1211 60.604C35.1211 59.145 34.8838 58.0508 34.4092 57.3213C33.9346 56.5918 33.1567 56.2271 32.0757 56.2271C31.0034 56.2271 30.23 56.5918 29.7554 57.3213C29.2808 58.042 29.0435 59.1362 29.0435 60.604ZM39.2344 60.604C39.2344 63.0034 38.6016 64.8799 37.3359 66.2334C36.0703 67.5869 34.3081 68.2637 32.0493 68.2637C30.6343 68.2637 29.3862 67.9561 28.3052 67.3408C27.2241 66.7168 26.3936 65.8247 25.8135 64.6646C25.2334 63.5044 24.9434 62.1509 24.9434 60.604C24.9434 58.1958 25.5718 56.3237 26.8286 54.9878C28.0854 53.6519 29.8521 52.9839 32.1284 52.9839C33.5435 52.9839 34.7915 53.2915 35.8726 53.9067C36.9536 54.522 37.7842 55.4053 38.3643 56.5566C38.9443 57.708 39.2344 59.0571 39.2344 60.604ZM55.7534 68H51.7324V59.3911C51.7324 58.3276 51.5522 57.5322 51.1919 57.0049C50.8403 56.4688 50.2822 56.2007 49.5176 56.2007C48.4893 56.2007 47.7422 56.5786 47.2764 57.3345C46.8105 58.0903 46.5776 59.334 46.5776 61.0654V68H42.5566V53.2607H45.6284L46.1689 55.146H46.3931C46.7886 54.4692 47.3599 53.9419 48.1069 53.564C48.854 53.1772 49.7109 52.9839 50.6777 52.9839C52.8838 52.9839 54.3779 53.7046 55.1602 55.146H55.5161C55.9116 54.4604 56.4917 53.9287 57.2563 53.5508C58.0298 53.1729 58.8999 52.9839 59.8667 52.9839C61.5366 52.9839 62.7979 53.4146 63.6504 54.2759C64.5117 55.1284 64.9424 56.4995 64.9424 58.3892V68H60.9082V59.3911C60.9082 58.3276 60.728 57.5322 60.3677 57.0049C60.0161 56.4688 59.458 56.2007 58.6934 56.2007C57.709 56.2007 56.9707 56.5522 56.4785 57.2554C55.9951 57.9585 55.7534 59.0747 55.7534 60.604V68ZM77.2822 52.9839C79.0225 52.9839 80.3848 53.665 81.3691 55.0273C82.3535 56.3809 82.8457 58.2397 82.8457 60.604C82.8457 63.0386 82.3359 64.9238 81.3164 66.2598C80.3057 67.5957 78.9258 68.2637 77.1768 68.2637C75.4453 68.2637 74.0874 67.6353 73.103 66.3784H72.8262L72.1538 68H69.082V47.4863H73.103V52.2588C73.103 52.8652 73.0503 53.8364 72.9448 55.1724H73.103C74.0435 53.7134 75.4365 52.9839 77.2822 52.9839ZM75.9902 56.2007C74.9971 56.2007 74.272 56.5083 73.8149 57.1235C73.3579 57.73 73.1206 58.7363 73.103 60.1426V60.5776C73.103 62.1597 73.3359 63.2935 73.8018 63.979C74.2764 64.6646 75.0234 65.0073 76.043 65.0073C76.8691 65.0073 77.5239 64.6294 78.0073 63.8735C78.4995 63.1089 78.7456 62.0015 78.7456 60.5513C78.7456 59.1011 78.4995 58.0156 78.0073 57.2949C77.5151 56.5654 76.8428 56.2007 75.9902 56.2007ZM89.3716 60.604C89.3716 62.063 89.6089 63.166 90.0835 63.9131C90.5669 64.6602 91.3491 65.0337 92.4302 65.0337C93.5024 65.0337 94.2715 64.6646 94.7373 63.9263C95.2119 63.1792 95.4492 62.0718 95.4492 60.604C95.4492 59.145 95.2119 58.0508 94.7373 57.3213C94.2627 56.5918 93.4849 56.2271 92.4038 56.2271C91.3315 56.2271 90.5581 56.5918 90.0835 57.3213C89.6089 58.042 89.3716 59.1362 89.3716 60.604ZM99.5625 60.604C99.5625 63.0034 98.9297 64.8799 97.6641 66.2334C96.3984 67.5869 94.6362 68.2637 92.3774 68.2637C90.9624 68.2637 89.7144 67.9561 88.6333 67.3408C87.5522 66.7168 86.7217 65.8247 86.1416 64.6646C85.5615 63.5044 85.2715 62.1509 85.2715 60.604C85.2715 58.1958 85.8999 56.3237 87.1567 54.9878C88.4136 53.6519 90.1802 52.9839 92.4565 52.9839C93.8716 52.9839 95.1196 53.2915 96.2007 53.9067C97.2817 54.522 98.1123 55.4053 98.6924 56.5566C99.2725 57.708 99.5625 59.0571 99.5625 60.604ZM116.49 68H112.469V59.3911C112.469 58.3276 112.28 57.5322 111.902 57.0049C111.524 56.4688 110.922 56.2007 110.096 56.2007C108.971 56.2007 108.158 56.5786 107.657 57.3345C107.156 58.0815 106.906 59.3252 106.906 61.0654V68H102.885V53.2607H105.957L106.497 55.146H106.721C107.169 54.4341 107.785 53.8979 108.567 53.5376C109.358 53.1685 110.254 52.9839 111.256 52.9839C112.97 52.9839 114.271 53.4497 115.159 54.3813C116.046 55.3042 116.49 56.6401 116.49 58.3892V68ZM126.734 55.8447C125.881 55.8447 125.213 56.1172 124.73 56.6621C124.247 57.1982 123.97 57.9629 123.899 58.9561H129.542C129.524 57.9629 129.265 57.1982 128.764 56.6621C128.263 56.1172 127.586 55.8447 126.734 55.8447ZM127.301 68.2637C124.928 68.2637 123.073 67.6089 121.737 66.2993C120.401 64.9897 119.733 63.1353 119.733 60.7358C119.733 58.2661 120.349 56.3589 121.579 55.0142C122.818 53.6606 124.528 52.9839 126.708 52.9839C128.791 52.9839 130.412 53.5771 131.572 54.7637C132.732 55.9502 133.312 57.5894 133.312 59.6812V61.6323H123.807C123.851 62.7749 124.189 63.667 124.822 64.3086C125.455 64.9502 126.343 65.271 127.485 65.271C128.373 65.271 129.212 65.1787 130.003 64.9941C130.794 64.8096 131.621 64.5151 132.482 64.1108V67.2222C131.779 67.5737 131.027 67.833 130.228 68C129.428 68.1758 128.452 68.2637 127.301 68.2637Z" fill="white"/>
</g>
<defs>
<clipPath id="clip0_4_17">
<rect width="134" height="69" fill="white"/>
</clipPath>
<clipPath id="clip1_4_17">
<rect width="85" height="85" fill="white" transform="translate(8 14.9034) rotate(-38.4911)"/>
</clipPath>
</defs>
</svg>
